<svg xmlns="http://www.w3.org/2000/svg" viewBox="0 0 24 24" width="24" height="24" fill="none" stroke="currentColor" stroke-width="1" stroke-linecap="round" stroke-linejoin="round">
  <path d="M7.144 19.532h1.618l0.407-2.797h1.331c2.294 0 3.431-1.137 3.812-2.796 0.424-1.826-0.614-2.796-2.159-2.796h-3.045l-1.963 8.389z" fill="#003087"/>
  <path d="M12.141 13.747c-0.254 1.157-1.134 1.157-2.006 1.157h-0.592l0.407-2.796h0.631c0.933 0 1.5 0 1.56 0.796z" fill="#003087"/>
  <path d="M17.72 11.105c-0.041-0.259-0.28-0.416-0.561-0.416h-0.673l-0.198 1.291h0.653c0.27 0 0.52-0.096 0.593-0.384s0.229-0.233 0.186-0.491z" fill="#003087"/>
  <path d="M17.218 13.161c-0.041-0.259-0.28-0.416-0.561-0.416h-0.673l-0.198 1.291h0.653c0.27 0 0.52-0.096 0.593-0.384s0.229-0.232 0.186-0.491z" fill="#003087"/>
  <path d="M13.648 13.941h-1.331l-0.407 2.797h-1.618l1.963-8.389h3.045c1.545 0 2.583 0.97 2.159 2.796-0.381 1.659-1.518 2.796-3.812 2.796z" fill="#0070E0"/>
  <path d="M15.179 11.143c-0.06-0.796-0.627-0.796-1.56-0.796h-0.631l-0.407 2.796h0.592c0.872 0 1.752 0 2.006-1.157z" fill="#0070E0"/>
</svg> 